<svg width="32" height="32" viewBox="0 0 32 32" xmlns="http://www.w3.org/2000/svg">
    <g fill="none" fill-rule="evenodd">
        <path d="M0 0h32v32H0z"/>
        <g fill-rule="nonzero">
            <path d="M29.097 14.587H3.367c-.499 0-.903.425-.903.949v8.09c0 .523.404.948.903.948h25.73l.903-.5v-8.538c0-.524-.404-.949-.903-.949z" fill="#F2F2F6"/>
            <path d="M2.903 21.228v-6.18L2 15.536v8.539c0 .524.404.948.903.948h26.194c.499 0 .903-.424.903-.948H5.613c-1.497 0-2.71-1.275-2.71-2.847z" fill="#E1E1E6"/>
            <path d="M29.097 6.048H2.903l-.466.949v7.505l.466 1.034H30V6.997c0-.524-.404-.949-.903-.949z" fill="#DB4655"/>
            <path d="M2 6.997v8.539h.903V6.048c-.499 0-.903.425-.903.949z" fill="#BD4150"/>
        </g>
    </g>
</svg>
